<svg viewBox="0 0 512 62" fill="none" xmlns="http://www.w3.org/2000/svg">
  <g clip-path="url(#clip0_1873_242)">
  <path d="M465.491 15.7612H445.719C442.424 15.9495 441.482 16.7969 441.482 20.8455V31.9556H465.491V15.7612ZM476.036 6.81665V55.1173H465.491V41.1826H441.482V55.1173H430.937V17.2677C430.937 10.5828 433.667 6.81665 441.482 6.81665H476.036ZM420.486 17.2677V43.4423C420.486 51.7278 415.778 55.2115 409.941 55.2115H376.799V6.9108H409.941C418.98 6.81665 420.486 12.56 420.486 17.2677ZM409.941 20.1864C409.991 19.5884 409.911 18.9867 409.708 18.4221C409.504 17.8576 409.182 17.3435 408.762 16.9147C408.342 16.486 407.835 16.1526 407.275 15.9373C406.714 15.722 406.115 15.6299 405.516 15.6671H387.438V45.8903H405.516C409.658 45.702 409.941 43.254 409.941 41.2768V20.1864ZM162.694 6.81665H173.239V25.8356H196.778V6.81665H207.323V55.1173H196.683V35.4393H173.145V55.1173H162.6L162.694 6.81665ZM225.212 6.81665L238.393 26.5889L251.386 6.81665H264.191L243.666 37.6613V55.0797H233.121V37.6613L212.501 6.81665H225.212ZM323.131 6.81665H357.027C361.828 6.81665 366.536 7.47572 366.348 17.2677V55.1173H355.803V20.6572C355.803 16.5144 355.332 15.5729 352.036 15.5729H333.582V55.0232H323.037V6.81665H323.131ZM497.033 6.81665V55.1173H486.488V6.81665H497.033ZM269.464 55.2115H303.359C310.044 55.2115 312.869 53.2343 312.68 43.5365V6.81665H302.135V41.3709C302.135 45.5137 301.664 45.9845 298.369 45.9845H279.915V6.81665H269.37V55.2115H269.464Z" fill="white"/>
  <path d="M120.043 9.64126C116.992 8.06915 113.847 6.68564 110.627 5.49851C95.2168 0.465508 78.8932 -1.14115 62.7973 0.790841C47.8269 2.76806 33.3273 6.34589 21.9347 16.7028C16.4738 21.787 13.2726 29.4135 15.9089 36.6633C19.3926 45.6079 28.6196 51.5395 36.9051 54.929C61.385 64.8151 94.6211 64.4385 118.254 53.1401C126.351 49.0915 135.39 42.2183 136.519 32.5205C137.461 21.9754 128.234 14.123 120.043 9.64126ZM65.4336 13.8782C67.505 9.92372 71.0828 5.21605 76.1671 5.1219C86.5162 5.07727 96.8192 6.50384 106.767 9.3588C107.332 9.64126 108.085 9.82957 108.368 10.3945C108.65 10.9594 108.085 11.4302 107.708 11.9009C99.7054 18.1151 90.5725 21.5987 81.2513 24.7058C76.5437 25.8356 71.7419 27.907 66.4693 26.7772C65.8304 26.6174 65.2321 26.3254 64.7131 25.9199C64.1941 25.5144 63.766 25.0046 63.4564 24.4233C62.1382 20.7137 63.9271 16.9476 65.4336 13.8782ZM32.9507 46.3611C31.7267 47.4909 30.5027 45.9845 29.3728 45.5137C23.7236 41.8417 18.6394 35.8159 20.1458 28.7544C22.4996 19.5274 32.0091 14.5372 40.0122 11.1477C44.7906 9.30371 49.7431 7.94729 54.7942 7.09912C55.3592 7.09912 56.1124 7.00496 56.3007 7.56988L56.1124 8.1348C45.9438 19.7157 39.2589 33.0855 32.9507 46.3611ZM84.8292 50.7863C82.4753 54.3641 78.7092 57.4712 74.0957 57.0004C64.0184 56.8596 54.0078 55.339 44.3432 52.4811C44.1247 52.4425 43.9178 52.3546 43.7383 52.2241C43.5589 52.0936 43.4115 51.9239 43.3075 51.7278C43.2397 51.4722 43.2481 51.2022 43.3317 50.9513C43.4154 50.7003 43.5706 50.4793 43.7783 50.3155C52.3463 43.4423 62.4207 40.2411 72.4951 36.8516C76.2612 35.8159 80.2157 34.5919 84.4526 35.1568C85.3328 35.2586 86.1706 35.5907 86.8814 36.1197C87.5922 36.6487 88.1509 37.3558 88.5012 38.1697C89.4427 42.9716 86.9005 46.926 84.8292 50.7863ZM131.341 33.5562C128.987 43.1599 118.536 48.2441 110.251 51.4454C105.731 52.9518 101.212 54.4583 96.2217 54.929C95.9393 54.929 95.3744 54.929 95.3744 54.4583L95.4685 53.8934C102.53 45.9845 107.803 37.134 112.51 28.0953C114.676 24.0467 116.653 19.904 118.536 15.7612C118.771 15.5099 119.061 15.3165 119.383 15.1963C121.078 15.4788 122.302 16.7969 123.715 17.7384C128.516 21.6552 132.847 27.0596 131.341 33.5562Z" fill="white"/>
  </g>
  <defs>
  <clipPath id="clip0_1873_242">
  <rect width="512" height="62" fill="white"/>
  </clipPath>
  </defs>
  </svg>
  